<?xml version="1.0" encoding="UTF-8"?>
<svg xmlns="http://www.w3.org/2000/svg" version="1.1" width="110" height="80">
  <defs>
    <filter id="f1" x="0" y="0" width="200%" height="200%">
      <feOffset result="offOut" in="SourceAlpha" dx="5" dy="5" />
      <feGaussianBlur result="blurOut" in="offOut" stdDeviation="5" />
      <feBlend in="SourceGraphic" in2="blurOut" mode="normal" />
    </filter>
  </defs>
	<polygon points="10,70 10,30 20,20 40,20 40,10 50,10 50,20 70,20 60,30 50,30 50,60 90,60 90,50 80,50 70,40 70,30 80,20 100,20 100,30 80,30 80,40 90,40 100,50 100,60 90,70 50,70 40,60 40,30 20,30 20,70" fill="#26f" filter="url(#f1)" />
</svg>
